<?xml version="1.0" encoding="utf-8" ?>
<svg baseProfile="full" height="100%" version="1.1" viewBox="-150 -150 250 300" width="100%" xmlns="http://www.w3.org/2000/svg" xmlns:ev="http://www.w3.org/2001/xml-events" xmlns:xlink="http://www.w3.org/1999/xlink"><defs /><polygon fill="#185452" points="106.3894620407255,3.908874655605487 63.68786090795707,1.1360779131381307 36,-7 12,-11 -3.5572034343606234,5.686122379732609 -14.254333554757729,35.4410655125011 27.74566644524227,59.4410655125011 60.81687615547026,55.02914721048057 93.63198103878267,32.47675851934241 117.6965858815827,59.6882559049526 96.74566644524228,95.4410655125011 56.74566644524228,105.4410655125011 35,98 6,97 -24,106 -50,112 -74.25433355475772,106.4410655125011 -79,93 -88.25433355475772,82.4410655125011 -92.25433355475772,53.4410655125011 -110.25433355475772,30.441065512501098 -138.97580926599252,21.77864616603037 -137,-13 -149.25433355475772,-44.5589344874989 -122.25433355475772,-70.5589344874989 -96.76239104640368,-92.19747541808343 -44.25433355475773,-99.5589344874989 3.4477966887893707,-93.720958720735 32.39685524144476,-87.16164416117662 73.4430932155889,-86.2437935852897 67.74566644524228,-62.5589344874989 47.74566644524227,-48.5589344874989 62.41767387281743,-36.656074313791486 75,-37 91,-46 109.67355491544868,-35.457788212720246" stroke="black" stroke-width="1.0" /></svg>